<svg width="226" height="47" viewBox="0 0 226 47" fill="none" xmlns="http://www.w3.org/2000/svg">
<mask id="mask0_303_16116" style="mask-type:luminance" maskUnits="userSpaceOnUse" x="0" y="0" width="226" height="47">
<path fill-rule="evenodd" clip-rule="evenodd" d="M0 0H226V46.9385H0V0Z" fill="white"/>
</mask>
<g mask="url(#mask0_303_16116)">
<path fill-rule="evenodd" clip-rule="evenodd" d="M73.3609 25.3428L67.556 39.8092C63.6287 49.2287 54.3203 48.6427 48.0473 41.9684L49.0422 38.2519C57.3737 54.0443 71.3212 41.6366 63.9265 30.6493L53.0816 15.6011C45.6918 5.60048 41.2425 16.1871 45.3449 20.0412L51.4337 25.4324C55.91 29.1545 54.4152 37.0695 48.6233 37.7763C45.9535 38.104 42.8952 36.7265 41.0625 35.2476L40.5626 37.2486H28.6957C28.9076 36.7945 29.1368 35.9607 29.1326 35.3164L29.1015 12.2588C29.1146 11.8367 28.8806 11.8103 28.7449 12.1588L18.2975 38.3998L13.6855 14.6187C13.5325 14.0327 13.2174 14.5819 13.2174 14.5819C12.4433 15.8386 9.02918 21.4457 8.42126 22.4066C7.96636 23.1197 7.78219 23.5946 7.43946 24.7617C7.26428 25.3428 3.52193 42.9877 3.35506 43.6792C3.20205 44.3075 3.41392 45.5802 3.6971 45.8968H-0.000244141C0.130617 45.776 0.729532 44.9518 0.873548 44.3075L3.81412 26.4877C4.47188 22.9822 3.6341 19.4239 3.6341 19.4239C1.8145 6.96338 1.41846 1.58814 0.468502 0.743176H3.54409C3.6341 1.3979 7.17427 21.0236 7.39445 21.9741C7.17427 22.3754 19.1623 0.917444 19.1623 0.917444H22.269C22.269 0.917444 20.716 2.63375 20.4411 3.0774C20.1981 3.44677 16.4647 9.42883 15.996 10.1731L19.5673 32.7128L27.2999 11.0125H40.1617V13.4676C38.752 12.6497 33.8616 11.6464 31.9292 11.9422L31.745 22.8822C31.754 23.4842 31.745 23.5314 32.2082 23.5314L40.1748 23.521V25.0311H31.6502L31.3843 35.6122C31.3843 36.3405 31.8343 36.4141 32.2262 36.4307C35.5587 36.5828 38.7021 36.0655 41.0216 34.8776L41.5714 32.5128C44.138 36.1926 46.2138 37.5076 48.9162 36.5731C51.5196 35.6857 54.0094 31.52 49.2271 27.618L44.5749 23.7584C38.1309 18.0513 43.5751 5.71156 52.7077 11.8894C52.6766 1.14448 64.3495 -4.21966 72.5862 3.98554L71.7802 7.51743C64.5025 -6.33171 51.1769 5.05684 57.3377 14.9409L66.0611 28.3095C68.0199 31.193 68.3529 33.2731 68.3529 33.2731L78.6259 10.237L83.7322 35.2796C83.9171 36.0655 84.291 36.8792 84.5561 37.1854H81.6204C81.6246 37.1854 78.9049 25.3477 78.9049 25.3477L73.3609 25.3428V25.3428ZM73.9329 23.7112H78.5352L76.8873 16.2822L73.9329 23.7112V23.7112ZM226 11.3298V13.1884C223.856 12.4331 222.353 12.4331 219.952 12.4331L219.237 35.6698C219.21 36.4988 219.281 36.8265 219.426 37.4333C219.426 37.4333 216.575 37.4277 216.575 37.4229C216.736 36.7945 216.827 36.5571 216.876 35.6545L216.746 12.4331H212.724C211.468 12.4331 211.468 13.9536 211.468 14.4972C211.468 14.4972 210.698 38.6372 210.666 39.5453C210.386 39.0698 194.54 15.3373 194.54 15.3373L194.548 37.4333H192.63C192.904 36.7154 192.923 35.9815 192.963 35.0255C192.963 35.0255 193.571 14.4187 193.571 13.7585C193.395 13.4676 192.157 11.6096 191.954 11.3243H195.823L209.923 34.118V11.3298H226V11.3298ZM91.1588 11.0764H95.0223L109.123 33.8695V11.0764H126.24L127.668 3.44677C127.821 2.42754 127.821 1.80476 127.416 1.20766H131.428L122.912 43.046C122.7 44.0069 122.759 44.8463 124.132 44.8727C128.352 44.9421 137.053 44.0492 140.525 42.6502L138.913 45.9606H119.409C119.715 45.4906 119.998 44.6144 120.278 43.4154L125.795 13.3891C123.7 12.4858 121.143 12.4275 118.787 12.4331L118.111 35.1636C118.107 36.0079 118.224 36.6314 118.354 37.1854H115.374C115.585 36.5307 115.653 35.9815 115.68 35.047L115.522 12.4226H111.829C110.618 12.4594 110.865 13.7321 110.834 14.2813L109.87 39.3023L93.7434 15.0887L93.7524 37.1854H91.622C91.8248 36.8265 92.1267 35.6858 92.1676 34.7832L92.7706 13.5155L91.1588 11.0764V11.0764ZM86.0157 37.1854C86.0157 37.1799 85.6598 13.3676 85.6598 13.3676C85.6598 12.5178 85.2361 11.5673 84.8179 11.0764H88.4384L88.2085 35.6753C88.1725 36.0079 88.5644 37.1014 88.7354 37.1854C88.6904 37.1799 86.0157 37.1854 86.0157 37.1854V37.1854ZM163.506 11.2555C182.821 7.94026 178.025 23.489 171.328 24.9832C171.328 24.9832 179.435 36.6362 179.746 37.1486C179.746 37.0695 179.516 13.8376 179.516 13.8376C179.466 11.963 178.782 11.1819 178.782 11.1819H190.356V13.8376C190.356 13.8376 187.901 12.4226 182.484 12.3851L182.263 23.7265H190.356V25.2949H182.263V35.617C182.263 36.4356 182.853 36.378 183.29 36.378C188.572 36.378 191.864 34.9942 191.864 34.9942L190.928 37.4597C190.928 37.4597 180.772 37.4763 180.074 37.4597C180.398 38.0936 183.105 41.4831 184.871 42.7558C184.001 42.3545 180.367 40.8235 179.034 39.1177C178.602 38.5636 168.861 26.5092 168.145 25.5275C178.07 23.3995 174.715 9.7614 167.23 12.0581L166.172 37.1486H163.159C163.385 36.7682 163.573 35.9288 163.659 35.0574L164.186 14.0223C164.172 12.5386 163.862 11.7735 163.506 11.2555V11.2555ZM149.433 29.7933C149.465 38.8219 158.625 39.1177 158.642 29.2816L158.655 11.1819L161.205 11.1868C160.57 11.7839 160.336 14.4923 160.21 16.7148C160.169 17.4806 159.714 28.7692 159.661 29.878C158.967 41.9948 147.51 40.2369 146.978 30.918C146.919 29.8988 146.731 14.35 146.668 13.8001C146.604 12.5282 146.357 11.4721 145.893 11.1819H149.401L149.433 29.7933V29.7933ZM127.218 37.1486C127.456 36.8633 127.979 35.9815 128.235 35.4691L139.431 9.6878L144.542 35.0519C144.542 35.0519 145.15 36.9049 145.447 37.1486H142.772C142.587 36.4196 139.881 25.1838 139.881 25.1838H134.171C134.171 25.1838 129.654 36.8209 129.527 37.1486H127.218ZM134.729 23.8376H139.557L137.756 15.9705L134.729 23.8376V23.8376Z" fill="white"/>
</g>
</svg>
